<svg data-v-0dd9719b="" version="1.0" xmlns="http://www.w3.org/2000/svg" xmlns:xlink="http://www.w3.org/1999/xlink" width="100%" height="100%" viewBox="0 0 340.000000 250.000000" preserveAspectRatio="xMidYMid meet" color-interpolation-filters="sRGB" style="margin: auto;"> <rect data-v-0dd9719b="" x="0" y="0" width="100%" height="100%" fill="#fff" fill-opacity="1" class="background"></rect> <rect data-v-0dd9719b="" x="0" y="0" width="100%" height="100%" fill="url(#watermark)" fill-opacity="1" class="watermarklayer"></rect> <g data-v-0dd9719b="" fill="#333" class="icon-text-wrapper icon-svg-group iconsvg" transform="translate(47.775001525878906,94.94590187072754)"><g class="iconsvg-imagesvg" transform="translate(0,0)"><g><rect fill="#333" fill-opacity="0" stroke-width="2" x="0" y="0" width="60" height="60.10819475055099" class="image-rect"></rect> <svg x="0" y="0" width="60" height="60.10819475055099" filtersec="colorsb9141025690" class="image-svg-svg primary" style="overflow: visible;"><svg xmlns="http://www.w3.org/2000/svg" xlink="http://www.w3.org/1999/xlink" viewBox="0 0 56.44000244140625 56.541595458984375"><defs><radialGradient id="af54fed66-f7a9-4bf8-9075-3e7f259b36ee" cx="28.37" cy="27.62" r="28.34" gradientUnits="userSpaceOnUse"><stop offset="0" stop-color="#19ffab"></stop><stop offset="1" stop-color="#136eff"></stop></radialGradient><radialGradient id="b0acd223e-1e0c-40e9-9838-dd95d074960d" cx="28.37" cy="27.62" r="28.34" href="#af54fed66-f7a9-4bf8-9075-3e7f259b36ee"></radialGradient><radialGradient id="c002c3af9-fa99-48fe-b1c4-6c10e71f6c92" cx="28.37" cy="27.62" r="28.34" href="#af54fed66-f7a9-4bf8-9075-3e7f259b36ee"></radialGradient><radialGradient id="dd9f0f65c-529f-4c32-a522-2d0aa7c7bf1c" cx="28.37" cy="27.62" r="28.34" href="#af54fed66-f7a9-4bf8-9075-3e7f259b36ee"></radialGradient><radialGradient id="e18d07624-d84a-4d53-893d-93a713de3133" cx="28.37" cy="27.62" r="28.34" gradientTransform="rotate(6.19 24.425 17.784)" href="#af54fed66-f7a9-4bf8-9075-3e7f259b36ee"></radialGradient><radialGradient id="f1eba794f-662e-4307-910f-13e3e0b58934" cx="28.37" cy="27.62" r="28.34" gradientTransform="rotate(2.38 31.19 17.654)" href="#af54fed66-f7a9-4bf8-9075-3e7f259b36ee"></radialGradient><radialGradient id="ge6d73a04-de23-4b4a-bb42-b38f99d4cde9" cx="28.37" cy="27.62" r="28.34" gradientTransform="rotate(3.17 28.288 55.096)" href="#af54fed66-f7a9-4bf8-9075-3e7f259b36ee"></radialGradient><radialGradient id="h19d74cd3-c8a6-4806-ac5a-7c6262ace876" cx="28.37" cy="27.62" r="28.34" gradientTransform="rotate(18 47.657 38.145)" href="#af54fed66-f7a9-4bf8-9075-3e7f259b36ee"></radialGradient><radialGradient id="i98b2ae3c-e03b-4c1c-8faf-75a7bd81dc56" cx="28.37" cy="27.62" r="28.34" gradientTransform="rotate(50.04 19.1 15.652)" href="#af54fed66-f7a9-4bf8-9075-3e7f259b36ee"></radialGradient><radialGradient id="jc1b40546-b314-4bab-8567-4b684ee7cc09" cx="28.37" cy="27.62" r="28.34" gradientTransform="rotate(53.18 13.448 23.424)" href="#af54fed66-f7a9-4bf8-9075-3e7f259b36ee"></radialGradient><radialGradient id="k5bc1b874-e98b-4230-b8d3-9e7d1539ec19" cx="28.37" cy="27.62" r="28.34" gradientTransform="rotate(49.5 19.09 40.88)" href="#af54fed66-f7a9-4bf8-9075-3e7f259b36ee"></radialGradient></defs><circle cx="43.65" cy="12.82" r="2.16" fill="url(#af54fed66-f7a9-4bf8-9075-3e7f259b36ee)"></circle><path d="M55 26.8a1.43 1.43 0 1 0 1.44 1.43A1.43 1.43 0 0 0 55 26.8z" fill="url(#b0acd223e-1e0c-40e9-9838-dd95d074960d)"></path><path d="M54.16 21.31a1.43 1.43 0 1 0-.88-2.72 1.43 1.43 0 0 0-.92 1.8 1.42 1.42 0 0 0 1.8.92zM50.76 13.64a1.44 1.44 0 1 0-2-.32 1.43 1.43 0 0 0 2 .32zM43.14 7.71a1.44 1.44 0 1 0-.31-2 1.44 1.44 0 0 0 .31 2zM36.07 4.11A1.44 1.44 0 0 0 37 1.38a1.44 1.44 0 0 0-.89 2.73z" fill="url(#c002c3af9-fa99-48fe-b1c4-6c10e71f6c92)"></path><path d="M28.23 2.86a1.43 1.43 0 1 0-1.43-1.43 1.43 1.43 0 0 0 1.43 1.43z" fill="url(#dd9f0f65c-529f-4c32-a522-2d0aa7c7bf1c)"></path><path d="M20.39 4.11a1.43 1.43 0 1 0-1.8-.92 1.43 1.43 0 0 0 1.8.92z" fill="url(#af54fed66-f7a9-4bf8-9075-3e7f259b36ee)"></path><path d="M21.3 12.14a1.43 1.43 0 1 0 .92-1.81 1.43 1.43 0 0 0-.92 1.81z" fill="url(#c002c3af9-fa99-48fe-b1c4-6c10e71f6c92)"></path><circle cx="24.45" cy="17.82" r="1.43" transform="rotate(-6.19 24.447 17.83)" fill="url(#e18d07624-d84a-4d53-893d-93a713de3133)"></circle><path d="M19.9 20.87a1.44 1.44 0 1 0 .32 2 1.44 1.44 0 0 0-.32-2z" fill="url(#c002c3af9-fa99-48fe-b1c4-6c10e71f6c92)"></path><circle cx="17.16" cy="28.61" r="1.43" fill="url(#c002c3af9-fa99-48fe-b1c4-6c10e71f6c92)"></circle><path d="M18.66 33.88a1.43 1.43 0 1 0 2 .32 1.44 1.44 0 0 0-2-.32z" fill="url(#c002c3af9-fa99-48fe-b1c4-6c10e71f6c92)"></path><path d="M24.73 40.24a1.43 1.43 0 1 0-.92-1.81 1.43 1.43 0 0 0 .92 1.81z" fill="url(#af54fed66-f7a9-4bf8-9075-3e7f259b36ee)"></path><circle cx="32.01" cy="38.64" r="1.43" fill="url(#c002c3af9-fa99-48fe-b1c4-6c10e71f6c92)"></circle><path d="M36.25 33.59a1.44 1.44 0 1 0 2-.31 1.44 1.44 0 0 0-2 .31z" fill="url(#c002c3af9-fa99-48fe-b1c4-6c10e71f6c92)"></path><circle cx="39.3" cy="27.86" r="1.43" fill="url(#c002c3af9-fa99-48fe-b1c4-6c10e71f6c92)"></circle><path d="M38.13 20.58a1.43 1.43 0 1 0-.32 2 1.44 1.44 0 0 0 .32-2z" fill="url(#c002c3af9-fa99-48fe-b1c4-6c10e71f6c92)"></path><circle cx="31.3" cy="17.59" r="1.43" transform="rotate(-2.38 31.182 17.504)" fill="url(#f1eba794f-662e-4307-910f-13e3e0b58934)"></circle><path d="M12.85 17.29a1.43 1.43 0 1 0 2-.32 1.43 1.43 0 0 0-2 .32z" fill="url(#c002c3af9-fa99-48fe-b1c4-6c10e71f6c92)"></path><circle cx="10.78" cy="28.42" r="1.43" fill="url(#c002c3af9-fa99-48fe-b1c4-6c10e71f6c92)"></circle><path d="M13.39 37.49a1.43 1.43 0 1 0 2 .31 1.43 1.43 0 0 0-2-.31zM24.38 45.33a1.43 1.43 0 0 0-2.72-.89 1.43 1.43 0 1 0 2.72.89zM35.17 44.33a1.43 1.43 0 1 0-.92 1.8 1.43 1.43 0 0 0 .92-1.8zM43.62 39.18a1.44 1.44 0 1 0-2 .31 1.43 1.43 0 0 0 2-.31z" fill="url(#c002c3af9-fa99-48fe-b1c4-6c10e71f6c92)"></path><circle cx="45.68" cy="28.04" r="1.43" fill="url(#dd9f0f65c-529f-4c32-a522-2d0aa7c7bf1c)"></circle><path d="M43.08 19a1.43 1.43 0 1 0-2-.32 1.44 1.44 0 0 0 2 .32zM32.08 11.14a1.43 1.43 0 0 0 .92 1.8 1.45 1.45 0 0 0 1.81-.94 1.43 1.43 0 0 0-2.73-.88zM13.32 7.71a1.43 1.43 0 1 0-2-.32 1.44 1.44 0 0 0 2 .32z" fill="url(#c002c3af9-fa99-48fe-b1c4-6c10e71f6c92)"></path><circle cx="6.55" cy="12.48" r="1.43" fill="url(#af54fed66-f7a9-4bf8-9075-3e7f259b36ee)"></circle><path d="M3.19 18.59a1.43 1.43 0 1 0 .92 1.8 1.43 1.43 0 0 0-.92-1.8z" fill="url(#c002c3af9-fa99-48fe-b1c4-6c10e71f6c92)"></path><circle cx="1.43" cy="28.23" r="1.43" fill="url(#b0acd223e-1e0c-40e9-9838-dd95d074960d)"></circle><path d="M2.3 35.15a1.44 1.44 0 0 0 .89 2.73 1.44 1.44 0 1 0-.89-2.73z" fill="url(#dd9f0f65c-529f-4c32-a522-2d0aa7c7bf1c)"></path><path d="M5.71 42.83a1.43 1.43 0 1 0 2 .31 1.44 1.44 0 0 0-2-.31z" fill="url(#c002c3af9-fa99-48fe-b1c4-6c10e71f6c92)"></path><circle cx="12.48" cy="49.92" r="1.43" fill="url(#c002c3af9-fa99-48fe-b1c4-6c10e71f6c92)"></circle><path d="M20.39 52.36a1.43 1.43 0 0 0-.88 2.72 1.43 1.43 0 0 0 .88-2.72z" fill="url(#dd9f0f65c-529f-4c32-a522-2d0aa7c7bf1c)"></path><circle cx="28.23" cy="55.03" r="1.43" transform="rotate(-3.17 28.315 55.034)" fill="url(#ge6d73a04-de23-4b4a-bb42-b38f99d4cde9)"></circle><path d="M36.07 52.36a1.43 1.43 0 1 0 1.81.92 1.45 1.45 0 0 0-1.81-.92z" fill="url(#af54fed66-f7a9-4bf8-9075-3e7f259b36ee)"></path><path d="M43.14 48.76a1.43 1.43 0 1 0 2 .31 1.43 1.43 0 0 0-2-.31z" fill="url(#dd9f0f65c-529f-4c32-a522-2d0aa7c7bf1c)"></path><path d="M50.76 42.83a1.43 1.43 0 1 0 .31 2 1.43 1.43 0 0 0-.31-2z" fill="url(#af54fed66-f7a9-4bf8-9075-3e7f259b36ee)"></path><path d="M54.16 35.15a1.43 1.43 0 0 0-1.8.92 1.45 1.45 0 0 0 .92 1.81 1.43 1.43 0 0 0 .88-2.73z" fill="url(#c002c3af9-fa99-48fe-b1c4-6c10e71f6c92)"></path><circle cx="38.13" cy="8.81" r="2.16" fill="url(#c002c3af9-fa99-48fe-b1c4-6c10e71f6c92)"></circle><path d="M31.31 8.83a2.16 2.16 0 1 0-1.8-2.47 2.16 2.16 0 0 0 1.8 2.47z" fill="url(#c002c3af9-fa99-48fe-b1c4-6c10e71f6c92)"></path><path d="M25.16 8.83A2.16 2.16 0 1 0 22.69 7a2.16 2.16 0 0 0 2.47 1.83z" fill="url(#dd9f0f65c-529f-4c32-a522-2d0aa7c7bf1c)"></path><circle cx="18.33" cy="8.81" r="2.16" fill="url(#c002c3af9-fa99-48fe-b1c4-6c10e71f6c92)"></circle><circle cx="12.82" cy="12.82" r="2.16" fill="url(#c002c3af9-fa99-48fe-b1c4-6c10e71f6c92)"></circle><path d="M6.88 17.35a2.16 2.16 0 1 0 2.91-.94 2.17 2.17 0 0 0-2.91.94zM6.36 27a2.16 2.16 0 1 0-1.8-2.48A2.16 2.16 0 0 0 6.36 27zM7 33.78A2.16 2.16 0 1 0 4.56 32 2.16 2.16 0 0 0 7 33.78zM10.73 37.15a2.16 2.16 0 1 0-.94 2.91 2.17 2.17 0 0 0 .94-2.91z" fill="url(#c002c3af9-fa99-48fe-b1c4-6c10e71f6c92)"></path><circle cx="12.82" cy="43.65" r="2.16" fill="url(#af54fed66-f7a9-4bf8-9075-3e7f259b36ee)"></circle><circle cx="18.33" cy="47.66" r="2.16" fill="url(#c002c3af9-fa99-48fe-b1c4-6c10e71f6c92)"></circle><path d="M25.16 47.63A2.16 2.16 0 1 0 27 50.11a2.18 2.18 0 0 0-1.84-2.48zM31.31 47.63a2.17 2.17 0 0 0-1.8 2.48 2.16 2.16 0 1 0 1.8-2.48z" fill="url(#c002c3af9-fa99-48fe-b1c4-6c10e71f6c92)"></path><circle cx="38.13" cy="47.66" r="2.16" fill="url(#dd9f0f65c-529f-4c32-a522-2d0aa7c7bf1c)"></circle><circle cx="43.65" cy="43.65" r="2.16" fill="url(#af54fed66-f7a9-4bf8-9075-3e7f259b36ee)"></circle><circle cx="47.66" cy="38.13" r="2.16" transform="rotate(-18 47.648 38.127)" fill="url(#h19d74cd3-c8a6-4806-ac5a-7c6262ace876)"></circle><circle cx="49.77" cy="31.64" r="2.16" fill="url(#c002c3af9-fa99-48fe-b1c4-6c10e71f6c92)"></circle><path d="M49.43 22.69a2.15 2.15 0 0 0-1.8 2.47 2.16 2.16 0 1 0 4.27-.68 2.15 2.15 0 0 0-2.47-1.79zM45.73 19.32a2.17 2.17 0 1 0 1-2.91 2.17 2.17 0 0 0-1 2.91z" fill="url(#c002c3af9-fa99-48fe-b1c4-6c10e71f6c92)"></path><circle cx="28.23" cy="12.69" r="2.42" fill="url(#c002c3af9-fa99-48fe-b1c4-6c10e71f6c92)"></circle><circle cx="19.1" cy="15.66" r="2.42" transform="rotate(-50.04 19.098 15.659)" fill="url(#i98b2ae3c-e03b-4c1c-8faf-75a7bd81dc56)"></circle><circle cx="13.45" cy="23.43" r="2.42" transform="rotate(-53.18 13.443 23.43)" fill="url(#jc1b40546-b314-4bab-8567-4b684ee7cc09)"></circle><path d="M12.7 30.73a2.42 2.42 0 1 0 3.05 1.56 2.43 2.43 0 0 0-3.05-1.56z" fill="url(#af54fed66-f7a9-4bf8-9075-3e7f259b36ee)"></path><circle cx="19.1" cy="40.81" r="2.42" transform="rotate(-49.54 19.097 40.815)" fill="url(#k5bc1b874-e98b-4230-b8d3-9e7d1539ec19)"></circle><circle cx="28.23" cy="43.78" r="2.42" fill="url(#c002c3af9-fa99-48fe-b1c4-6c10e71f6c92)"></circle><path d="M38.79 42.77a2.42 2.42 0 1 0-3.38-.54 2.42 2.42 0 0 0 3.38.54z" fill="url(#af54fed66-f7a9-4bf8-9075-3e7f259b36ee)"></path><path d="M42.27 35.34a2.42 2.42 0 1 0-1.56-3.05 2.41 2.41 0 0 0 1.56 3.05z" fill="url(#c002c3af9-fa99-48fe-b1c4-6c10e71f6c92)"></path><circle cx="43.02" cy="23.43" r="2.42" fill="url(#dd9f0f65c-529f-4c32-a522-2d0aa7c7bf1c)"></circle><circle cx="37.37" cy="15.66" r="2.42" fill="url(#c002c3af9-fa99-48fe-b1c4-6c10e71f6c92)"></circle></svg></svg> <!----></g></g> <g transform="translate(67,1.9878463745117188)"><g data-gra="path-name" fill-rule="" class="tp-name iconsvg-namesvg" transform="translate(0,0)"><g transform="scale(1)"><g><path d="M32.21-35.02L42.54-35.02 42.54-31.99 32.21-31.99 32.21-35.02ZM9.05-37.66L9.05-37.66 12.08-36.52Q8.88-31.29 4.13-27.03L4.13-27.03Q3.69-26.59 3.25-26.24L3.25-26.24Q2.68-27.16 1.45-28.74L1.45-28.74Q5.32-31.86 8.17-36.21L8.17-36.21Q8.7-37 9.05-37.66ZM21.27-18.54L16.88-18.54 16.88-14.59 21.27-14.59 21.27-18.54ZM24.08-31.25L24.08-31.25 18.98-31.25Q18.33-29.79 16.79-27.11L16.79-27.11 22.46-27.11Q23.42-29.14 24.08-31.25ZM16.88-20.87L21.27-20.87 21.27-24.7 16.88-24.7 16.88-20.87ZM23.77-20.87L28.13-20.87 28.13-24.7 23.77-24.7 23.77-20.87ZM23.77-14.59L28.13-14.59 28.13-18.54 23.77-18.54 23.77-14.59ZM32.04-6.28L23.25-6.28 23.12-5.8Q28.3-2.46 30.89 0.48L30.89 0.48 28.78 2.68Q26.81 0.31 22.15-3.16L22.15-3.16Q19.91 1.41 13.89 3.52L13.89 3.52Q13.36 2.24 12.13 1.14L12.13 1.14Q17.53-0.53 19.42-4.31L19.42-4.31Q19.91-5.23 20.21-6.28L20.21-6.28 12.74-6.28 12.74-9.1 20.79-9.1Q21.01-10.59 21.05-12.13L21.05-12.13 14.28-12.13 14.28-23.73 13.8-23.16Q12.79-24.3 11.51-25L11.51-25Q11.21-24.39 10.46-23.25L10.46-23.25Q10.02-22.5 9.8-22.15L9.8-22.15 9.8 3.43 6.77 3.43 6.77-17.67Q4.92-15.16 2.9-13.1L2.9-13.1Q1.93-14.9 0.88-16.04L0.88-16.04Q6.11-21.01 9.45-27.6L9.45-27.6Q9.76-28.17 9.98-28.7L9.98-28.7 12.92-27.73Q11.95-25.8 11.6-25.22L11.6-25.22Q16.04-30.01 18.19-37.44L18.19-37.44 21.23-37Q20.7-35.33 20.17-33.88L20.17-33.88 25.44-33.88 25.88-34.06 27.99-32.7Q27.33-30.63 25.62-27.11L25.62-27.11 30.76-27.11 30.76-12.13 24.04-12.13Q23.95-10.55 23.77-9.1L23.77-9.1 32.04-9.1 32.04-6.28ZM31.6-23.55L43.42-23.55 43.42-20.48 39.42-20.48 39.42-0.53Q39.42 1.76 38.28 2.5L38.28 2.5Q38.1 2.59 37.97 2.68L37.97 2.68Q36.52 3.25 32.3 3.25L32.3 3.25Q32.12 1.71 31.33 0.09L31.33 0.09Q33.35 0.13 35.64 0.13L35.64 0.13Q36.25-0.09 36.3-0.57L36.3-0.57 36.3-20.48 31.6-20.48 31.6-23.55ZM60.6-35.82L61.17-35.95 63.41-34.5Q60.6-28.39 57.66-23.03L57.66-23.03Q62.93-18.37 62.93-13.32L62.93-13.32Q62.89-9.45 60.82-8.04L60.82-8.04Q59.77-7.38 58.1-7.16L58.1-7.16Q56.34-6.99 54.23-7.12L54.23-7.12Q54.14-8.75 53.31-10.15L53.31-10.15Q55.11-9.98 56.78-10.06L56.78-10.06Q57.92-10.15 58.62-10.59L58.62-10.59Q59.81-11.34 59.81-13.62L59.81-13.62Q59.68-18.19 54.4-22.68L54.4-22.68Q56.69-26.89 59.11-32.74L59.11-32.74 52.16-32.74 52.16 3.38 49.04 3.38 49.04-35.82 60.6-35.82ZM69.08-16.57L69.08-3.47 82.4-3.47 82.4-16.57 69.08-16.57ZM82.4-19.64L82.4-31.77 69.08-31.77 69.08-19.64 82.4-19.64ZM65.83 3.08L65.83-34.94 85.69-34.94 85.69 2.72 82.4 2.72 82.4-0.35 69.08-0.35 69.08 3.08 65.83 3.08ZM120.85-16.7L113.95-16.7 113.95-13.23Q116.76-13.23 122.52-13.32L122.52-13.32Q120.5-14.41 118.78-15.16L118.78-15.16 120.85-16.7ZM99.8-21.93L99.8-18.94 110.57-18.94 110.57-21.93 99.8-21.93ZM110.57-26.98L99.8-26.98 99.8-24.08 110.57-24.08 110.57-26.98ZM125.02-24.08L125.02-26.98 113.95-26.98 113.95-24.08 125.02-24.08ZM113.95-18.94L125.02-18.94 125.02-21.93 113.95-21.93 113.95-18.94ZM93.69-10.15L93.69-10.15 93.52-13.14Q97.91-13.1 110.57-13.18L110.57-13.18 110.57-16.7 96.64-16.7 96.64-29.27 110.57-29.27 110.57-32.12 93.56-32.12 93.56-34.89 110.57-34.89 110.57-37.57 113.95-37.57 113.95-34.89 131.44-34.89 131.44-32.12 113.95-32.12 113.95-29.27 128.28-29.27 128.28-16.7 121.25-16.7Q126.3-14.63 130.65-11.16L130.65-11.16Q131.31-10.59 131.79-10.15L131.79-10.15 129.51-8.22Q128.58-9.23 126.52-10.77L126.52-10.77Q103.14-10.24 93.69-10.15ZM118.04-5.1L118.04-5.1 115.75-3.08Q113.42-5.45 108.46-8.09L108.46-8.09Q108.37-8.13 108.33-8.17L108.33-8.17 110.43-9.98Q115.27-7.65 117.91-5.23L117.91-5.23Q117.99-5.14 118.04-5.1ZM95.36 2.07L95.36 2.07 92.46 0.48Q94.92-2.42 96.72-7.82L96.72-7.82 99.54-6.72Q97.29-0.48 95.36 2.07ZM108.54 0L108.54 0 118.3 0Q120.01 0 120.5-0.88L120.5-0.88Q120.94-1.76 121.11-4.48L121.11-4.48Q122.34-3.69 124.06-3.34L124.06-3.34Q123.71 0.79 122.34 1.93L122.34 1.93Q121.16 2.86 118.52 2.86L118.52 2.86 108.37 2.86Q103.84 2.86 102.7 1.54L102.7 1.54Q101.91 0.62 101.91-1.32L101.91-1.32 101.91-7.65 105.21-7.65 105.21-1.36Q105.21-0.4 106-0.18L106-0.18Q106.7 0 108.54 0ZM123.84-6.81L123.84-6.81 126.69-7.78Q130.3-3.6 131.79 0.09L131.79 0.09Q131.92 0.4 132.01 0.62L132.01 0.62 129.02 1.71Q127.79-1.71 124.28-6.28L124.28-6.28Q124.01-6.55 123.84-6.81ZM165.45-8.66L165.45-19.03 160.88-19.03Q160-11.73 156.75-8.09L156.75-8.09Q154.34-5.45 150.29-3.87L150.29-3.87Q149.5-5.41 148.27-6.5L148.27-6.5Q154.2-8.57 156.23-13.4L156.23-13.4Q157.15-15.64 157.54-19.03L157.54-19.03 149.5-19.03 149.5-21.97 162.07-21.97 162.07-28.52 155.48-28.52Q154.07-25.75 152.53-23.99L152.53-23.99Q151.44-24.92 149.77-25.71L149.77-25.71Q153.28-29.62 155.13-36.3L155.13-36.3 158.29-35.6Q157.72-33.53 156.84-31.46L156.84-31.46 162.07-31.46 162.07-37.49 165.41-37.49 165.41-31.46 175.78-31.46 175.78-28.52 165.41-28.52 165.41-21.97 177.63-21.97 177.63-19.03 168.75-19.03 168.75-8.66Q168.75-7.6 169.28-7.47L169.28-7.47Q169.58-7.38 170.07-7.38L170.07-7.38 173.67-7.38Q174.46-7.38 174.68-8.35L174.68-8.35Q174.95-9.32 174.99-12.7L174.99-12.7Q176.22-11.82 178.02-11.38L178.02-11.38Q177.71-6.15 176.31-4.97L176.31-4.97Q175.47-4.26 173.98-4.26L173.98-4.26 169.58-4.26Q166.68-4.26 165.94-5.67L165.94-5.67Q165.45-6.64 165.45-8.66L165.45-8.66ZM147.57-28.87L147.57-28.87 144.8-26.81Q142.95-29.84 138.87-33.44L138.87-33.44Q138.34-33.93 137.86-34.32L137.86-34.32 140.41-36.12Q144.71-32.74 147.13-29.53L147.13-29.53Q147.39-29.18 147.57-28.87ZM137.59-20.52L146.38-20.52 146.38-4.61Q147.17-4.48 149.06-3.21L149.06-3.21Q150.03-2.55 150.73-2.15L150.73-2.15Q153.72-0.35 160.36-0.22L160.36-0.22Q161.1-0.22 161.98-0.22L161.98-0.22Q170.68-0.22 178.33-1.05L178.33-1.05Q177.45 0.92 177.36 2.42L177.36 2.42Q169.06 2.94 161.94 2.94L161.94 2.94Q154.38 2.94 150.56 0.92L150.56 0.92Q150.29 0.83 150.12 0.7L150.12 0.7Q149.59 0.35 148.62-0.31L148.62-0.31Q146.73-1.63 146.03-1.63L146.03-1.63Q143.92-1.58 139.39 3.43L139.39 3.43 137.2 0.57Q140.54-2.59 143.13-3.82L143.13-3.82 143.13-17.36 137.59-17.36 137.59-20.52Z" transform="translate(-0.8799999952316284, 37.65999984741211)"></path></g> <!----> <!----> <!----> <!----> <!----> <!----> <!----></g></g> <g data-gra="path-slogan" fill-rule="" class="tp-slogan iconsvg-slogansvg" fill="#333" transform="translate(26.849998474121094,47.18000030517578)"><!----> <!----> <g transform="scale(1, 1)"><g transform="scale(1)"><path d="M2.06-5.06L6.56-5.06L6.56-8.58L7.73-8.58L7.73 0L6.56 0L6.56-3.98L2.06-3.98L2.06 0L0.89 0L0.89-8.58L2.06-8.58L2.06-5.06ZM10.83-1.03L15.98-1.03L15.98 0L9.66 0L9.66-8.58L15.89-8.58L15.89-7.59L10.83-7.59L10.83-4.92L15.52-4.92L15.52-3.89L10.83-3.89L10.83-1.03ZM18.89-8.58L23.20-1.64L23.20-8.58L24.33-8.58L24.33 0L23.02 0L18.66-6.94L18.61-6.94L18.61 0L17.48 0L17.48-8.58L18.89-8.58ZM32.53-3.61L29.91-3.61L29.91-4.59L33.66-4.59L33.66 0L32.91 0L32.63-1.08Q31.64 0.09 29.81 0.14L29.81 0.14Q28.08 0.14 27.14-0.75L27.14-0.75Q25.73-2.06 25.78-4.36L25.78-4.36Q26.11-8.63 29.86-8.81L29.86-8.81Q33.05-8.63 33.52-6L33.52-6L32.39-6Q31.92-7.78 29.81-7.83L29.81-7.83Q27.14-7.64 27-4.31L27-4.31Q27-0.75 29.86-0.75L29.86-0.75Q30.89-0.75 31.64-1.31L31.64-1.31Q32.58-2.06 32.53-3.61L32.53-3.61ZM42.38-8.58L39.14-3.47L39.14 0L37.97 0L37.97-3.47L34.73-8.58L36.09-8.58L38.53-4.45L41.02-8.58L42.38-8.58ZM49.08 0L48.23-2.48L44.77-2.48L43.88 0L42.70 0L45.94-8.58L47.25-8.58L50.34 0L49.08 0ZM46.50-7.31L45.14-3.52L47.81-3.52L46.55-7.31L46.50-7.31ZM52.78-8.58L57.09-1.64L57.09-8.58L58.22-8.58L58.22 0L56.91 0L52.55-6.94L52.50-6.94L52.50 0L51.38 0L51.38-8.58L52.78-8.58ZM66.42-3.61L63.80-3.61L63.80-4.59L67.55-4.59L67.55 0L66.80 0L66.52-1.08Q65.53 0.09 63.70 0.14L63.70 0.14Q61.97 0.14 61.03-0.75L61.03-0.75Q59.63-2.06 59.67-4.36L59.67-4.36Q60-8.63 63.75-8.81L63.75-8.81Q66.94-8.63 67.41-6L67.41-6L66.28-6Q65.81-7.78 63.70-7.83L63.70-7.83Q61.03-7.64 60.89-4.31L60.89-4.31Q60.89-0.75 63.75-0.75L63.75-0.75Q64.78-0.75 65.53-1.31L65.53-1.31Q66.47-2.06 66.42-3.61L66.42-3.61ZM73.83-5.06L78.33-5.06L78.33-8.58L79.50-8.58L79.50 0L78.33 0L78.33-3.98L73.83-3.98L73.83 0L72.66 0L72.66-8.58L73.83-8.58L73.83-5.06ZM86.95-3.19L86.95-8.58L88.13-8.58L88.13-3.05Q87.98 0.05 84.61 0.14L84.61 0.14Q81.47 0.05 81.33-2.86L81.33-2.86L81.33-8.58L82.50-8.58L82.50-3.19Q82.55-0.84 84.66-0.80L84.66-0.80Q86.95-0.84 86.95-3.19L86.95-3.19ZM90.09-8.58L91.27-8.58L91.27 0L90.09 0L90.09-8.58ZM99.98-8.58L97.08-4.41L100.13 0L98.67 0L96.33-3.52L93.98 0L92.58 0L95.67-4.41L92.77-8.58L94.22-8.58L96.38-5.30L98.58-8.58L99.98-8.58ZM106.88-3.19L106.88-8.58L108.05-8.58L108.05-3.05Q107.91 0.05 104.53 0.14L104.53 0.14Q101.39 0.05 101.25-2.86L101.25-2.86L101.25-8.58L102.42-8.58L102.42-3.19Q102.47-0.84 104.58-0.80L104.58-0.80Q106.88-0.84 106.88-3.19L106.88-3.19ZM115.50 0L114.66-2.48L111.19-2.48L110.30 0L109.13 0L112.36-8.58L113.67-8.58L116.77 0L115.50 0ZM112.92-7.31L111.56-3.52L114.23-3.52L112.97-7.31L112.92-7.31ZM119.20-8.58L123.52-1.64L123.52-8.58L124.64-8.58L124.64 0L123.33 0L118.97-6.94L118.92-6.94L118.92 0L117.80 0L117.80-8.58L119.20-8.58Z" transform="translate(-0.890625, 8.8125)"></path></g></g></g></g></g><defs v-gra="od"></defs></svg>